<?xml version="1.0" encoding="utf-8"?>
<!-- Generator: Adobe Illustrator 21.0.0, SVG Export Plug-In . SVG Version: 6.00 Build 0)  -->
<svg version="1.1" id="Layer_1" xmlns="http://www.w3.org/2000/svg" xmlns:xlink="http://www.w3.org/1999/xlink" x="0px" y="0px"
	 viewBox="0 0 1587 577.8" style="enable-background:new 0 0 1587 577.8;" xml:space="preserve">
<style type="text/css">
	.st0{enable-background:new    ;}
	.st1{fill:#F44336;}
	.st2{fill:#FF9800;}
	.st3{fill:#FFE082;}
	.st4{fill:#36CC64;}
	.st5{fill:#29B6F6;}
	.st6{fill:#3F51B5;}
</style>
<title>Asset 2</title>
<g id="Layer_2">
	<g id="Layer_1-2">
		<g class="st0">
			<path class="st1" d="M81.4,176v127.2c0,37,20.2,65.1,58.7,65.1c37,0,62.1-31.1,62.1-68V176h59.7v243.5h-53.7l-3.9-33
				C179,411.2,155.8,423,121.8,423c-58.2,0-100.6-43.9-100.6-119.3V176H81.4z"/>
		</g>
		<g class="st0">
			<path class="st2" d="M494,419V291.9c0-37-20.2-65.1-58.7-65.1c-37,0-62.1,31.1-62.1,68V419h-59.7V175.5h53.7l3.9,33
				c24.6-24.2,49.3-36.5,79.9-36.5c57.2,0,103,42.9,103,119.3V419H494z"/>
		</g>
		<g class="st0">
			<path class="st3" d="M671.5,107.5c0,46.8-71,46.8-71,0C600.5,60.6,671.5,60.6,671.5,107.5z M605.9,175v244h60.1V175H605.9z"/>
		</g>
		<g class="st0">
			<path class="st4" d="M939.2,520.6V362.8c-20.7,40.4-59.2,60.6-100.6,60.6c-68.5,0-123.7-44.4-123.7-126.2
				c0-78.4,52.3-122.8,118.3-125.2c47.3,0,86.3,24.2,105.5,61.1v-57.7h23.7v345.1H939.2z M937.2,297.8c0-59.7-41.9-102.5-98.6-102.5
				c-55.2,0-99.6,33.5-99.6,102c0,68.5,44.4,103,99.6,103C894.3,400.3,937.2,357.4,937.2,297.8z"/>
		</g>
		<g class="st0">
			<path class="st5" d="M1054.5,175.5v43.4c18.7-33.5,52.8-47.3,86.8-47.8c65.1,0,109.9,39.9,109.9,107.5V419h-24.2V279
				c0-55.2-34-84.8-86.8-84.3c-50.3,0.5-85.3,38.5-85.3,88.7V419h-24.2V175.5H1054.5z"/>
		</g>
		<g class="st0">
			<path class="st6" d="M1548.5,175.5c0,81.3,0,162.2,0,243.5h-24.2v-51.8c-23.7,38-60.1,55.7-99.6,55.7
				c-68,0-123.7-51.3-123.7-125.7s55.7-124.7,123.7-124.7c39.4,0,79.4,18.2,99.6,56.2v-53.2H1548.5z M1325.2,297.3
				c0,61.1,44.4,102.1,99.6,102.1c135.6,0,135.6-203.6,0-203.6C1369.6,195.7,1325.2,236.1,1325.2,297.3z"/>
		</g>
	</g>
</g>
</svg>
