<?xml version="1.0" encoding="utf-8"?>
<!-- Generator: Adobe Illustrator 21.1.0, SVG Export Plug-In . SVG Version: 6.00 Build 0)  -->
<svg version="1.1" id="Layer_1" xmlns="http://www.w3.org/2000/svg" xmlns:xlink="http://www.w3.org/1999/xlink" x="0px" y="0px"
	 viewBox="0 0 303 156" style="enable-background:new 0 0 303 156;" xml:space="preserve">
<style type="text/css">
	.st0{fill:#FFD55E;}
	.st1{opacity:0.1;}
	.st2{fill:#0A0303;}
	.st3{fill:#FFD55E;stroke:#45484A;stroke-width:2;stroke-miterlimit:10;}
	.st4{enable-background:new    ;}
	.st5{fill:#45484A;}
	.st6{fill:none;stroke:#45484A;stroke-width:2;stroke-miterlimit:10;}
</style>
<title>Asset 3</title>
<g id="Layer_2">
	<g id="Objects">
		
			<image style="overflow:visible;opacity:0.15;enable-background:new    ;" width="303" height="156" xlink:href="E3786937DBC73CBE.png" >
		</image>
		<path class="st0" d="M297,125.3V26.7c-14-0.1-25.3-11.5-25.2-25.5c0,0,0-0.1,0-0.1H27.2C27.2,15.2,16,26.7,1,26.7v98.7
			c15,0,26.2,11.5,26.2,25.7h244.7c-0.2-14,11-25.5,25-25.7C296.9,125.3,297,125.3,297,125.3z"/>
		<g>
			<g class="st1">
				<path class="st2" d="M297,125.3V26.7c-14-0.1-25.3-11.5-25.2-25.5c0,0,0-0.1,0-0.1H27.2C27.2,15.2,16,26.7,1,26.7v98.7
					c15,0,26.2,11.5,26.2,25.7h244.7c-0.2-14,11-25.5,25-25.7C296.9,125.3,297,125.3,297,125.3z"/>
			</g>
		</g>
		<path class="st3" d="M37,142c-3.2-12-14-22.3-26-25.5v-83C23,30.3,33.8,21,37,10h229c3.2,11,12,20.3,23,23.5v83
			c-11,3.2-19.8,13.5-23,25.5L37,142z"/>
		<g class="st4">
			<path class="st5" d="M96.3,39.2l-1.9-4.3H83.9L82,39.2h-1.4l7.8-17.5h1.5l7.8,17.5H96.3z M93.9,33.6L89.2,23l-4.7,10.6H93.9z"/>
		</g>
		<g class="st4">
			<path class="st5" d="M115.2,30.2c0.1,4.4-2.7,8.9-8.9,8.9c-2,0-3.9,0-5.9,0V21.7c2,0,3.9,0,5.9,0
				C112.3,21.7,115.1,25.9,115.2,30.2z M101.8,22.9v14.9h4.6c5.2,0,7.6-3.9,7.5-7.6c-0.1-3.6-2.5-7.3-7.5-7.3H101.8z"/>
			<path class="st5" d="M133.5,23.6l-6.7,10.2h-0.4l-6.7-10.2v15.5h-1.3V21.7c0.6,0,0.9,0,1.6,0l6.7,10.2l6.6-10.2h1.6v17.5h-1.3
				V23.6z"/>
		</g>
		<g class="st4">
			<path class="st5" d="M138.7,39.2V21.7h1.3v17.5H138.7z"/>
		</g>
		<g class="st4">
			<path class="st5" d="M149.7,22.9h-6.3v-1.2h14v1.2H151v16.3h-1.3V22.9z"/>
			<path class="st5" d="M183.7,30.4c0,4.6-2.9,9-8.8,9c-5.9,0-8.8-4.4-8.8-9.1c0-4.7,2.9-9,8.8-9C180.7,21.4,183.7,25.7,183.7,30.4z
				 M167.3,30.4c0,3.9,2.5,7.8,7.5,7.8c5,0,7.5-3.8,7.5-7.8c0-4-2.5-7.8-7.5-7.8C169.8,22.6,167.3,26.3,167.3,30.4z"/>
			<path class="st5" d="M187.5,21.7l11.8,14.5V21.7h1.3v17.5H200l-11.8-14.4v14.4h-1.3V21.7H187.5z"/>
			<path class="st5" d="M205.8,29.7H216V31h-10.2v6.9h11v1.3h-12.4V21.7h12.1v1.3h-10.7V29.7z"/>
		</g>
		<line class="st6" x1="35" y1="118" x2="35" y2="34"/>
		<line class="st6" x1="264" y1="118" x2="264" y2="34"/>
		<g class="st4">
			<path class="st5" d="M101.7,84.5v-4c-1.7,3.1-4.8,4.3-7.9,4.4c-5.9,0-10-3.6-10-9.8V62.2h2.2V75c0,5,3.1,7.7,7.9,7.7
				c4.6,0,7.8-3.5,7.8-8.1V62.2h2.2v22.3H101.7z"/>
			<path class="st5" d="M110,62.3v4c1.7-3.1,4.8-4.3,7.9-4.4c5.9,0,10,3.6,10,9.8v12.8h-2.2V71.7c0-5-3.1-7.7-7.9-7.7
				c-4.6,0-7.8,3.5-7.8,8.1v12.4h-2.2V62.3H110z"/>
			<path class="st5" d="M134.8,55c0,2.3-3.6,2.3-3.6,0S134.8,52.7,134.8,55z M131.9,62.2v22.3h2.2V62.2H131.9z"/>
		</g>
		<g class="st4">
			<path class="st5" d="M161.3,93.8V79.3c-1.9,3.7-5.4,5.5-9.2,5.5c-6.3,0-11.3-4-11.3-11.5c0-7.2,4.8-11.2,10.8-11.4
				c4.3,0,7.9,2.2,9.6,5.6v-5.3h2.2v31.5H161.3z M161.2,73.4c0-5.4-3.8-9.4-9-9.4c-5,0-9.1,3.1-9.1,9.3c0,6.3,4,9.4,9.1,9.4
				C157.3,82.8,161.2,78.9,161.2,73.4z"/>
			<path class="st5" d="M170.1,62.3v4c1.7-3.1,4.8-4.3,7.9-4.4c5.9,0,10,3.6,10,9.8v12.8h-2.2V71.7c0-5-3.1-7.7-7.9-7.7
				c-4.6,0-7.8,3.5-7.8,8.1v12.4h-2.2V62.3H170.1z"/>
			<path class="st5" d="M213.4,62.3c0,7.4,0,14.8,0,22.2h-2.2v-4.7c-2.2,3.5-5.5,5.1-9.1,5.1c-6.2,0-11.3-4.7-11.3-11.5
				c0-6.8,5.1-11.4,11.3-11.4c3.6,0,7.2,1.7,9.1,5.1v-4.9H213.4z M193,73.4c0,5.6,4,9.3,9.1,9.3c12.4,0,12.4-18.6,0-18.6
				C197,64.1,193,67.8,193,73.4z"/>
		</g>
		<g class="st4">
			<path class="st5" d="M273.4,101.8v3.1h-0.7c0-0.5-0.1-0.9-0.1-1.2s-0.2-0.7-0.3-1c-0.2-0.3-0.4-0.5-0.7-0.7
				c-0.3-0.2-0.7-0.3-1.2-0.4v-0.9h12v1.1H273.4z"/>
			<path class="st5" d="M273.4,91.3v3.1h-0.7c0-0.5-0.1-0.9-0.1-1.2c-0.1-0.4-0.2-0.7-0.3-1c-0.2-0.3-0.4-0.5-0.7-0.7
				c-0.3-0.2-0.7-0.3-1.2-0.4v-0.9h12v1.1H273.4z"/>
			<path class="st5" d="M279.4,79.9v5.5h-0.9l-8-5.6v-1h8v-1.7h0.9v1.7h3v1.1H279.4z M278.5,84.3v-4.4h-6.4L278.5,84.3z"/>
			<path class="st5" d="M274.3,74.3c-0.6,0-1.1-0.1-1.6-0.3c-0.5-0.2-0.9-0.4-1.2-0.8s-0.6-0.8-0.8-1.2c-0.2-0.5-0.3-1-0.3-1.6
				c0-0.6,0.1-1.1,0.3-1.6s0.4-0.8,0.7-1.2c0.3-0.3,0.6-0.5,1.1-0.7s0.8-0.2,1.3-0.2c0.5,0,1,0.1,1.4,0.3c0.4,0.2,0.8,0.4,1.1,0.7
				s0.6,0.6,0.8,1c0.2,0.4,0.5,0.7,0.7,1.1c0.2,0.4,0.4,0.8,0.6,1.1c0.2,0.4,0.4,0.7,0.6,1c0.1,0.2,0.3,0.4,0.5,0.6
				c0.2,0.2,0.3,0.3,0.5,0.5c0.2,0.1,0.4,0.3,0.6,0.4s0.5,0.1,0.8,0.2v-6.7h0.9v7.8c-0.6,0-1.1-0.1-1.6-0.2
				c-0.5-0.1-0.9-0.4-1.4-0.7c-0.5-0.4-0.9-0.9-1.2-1.3c-0.3-0.4-0.6-0.9-0.9-1.3c-0.3-0.4-0.5-0.8-0.7-1.2c-0.2-0.4-0.5-0.7-0.7-1
				c-0.3-0.3-0.6-0.5-0.9-0.7c-0.3-0.2-0.7-0.3-1.2-0.3c-0.4,0-0.7,0.1-1,0.2c-0.3,0.1-0.6,0.3-0.8,0.6c-0.2,0.2-0.4,0.5-0.5,0.8
				s-0.2,0.7-0.2,1c0,0.4,0.1,0.8,0.2,1.1c0.2,0.3,0.4,0.6,0.7,0.8c0.3,0.2,0.6,0.4,1,0.5c0.4,0.1,0.7,0.2,1.2,0.2V74.3z"/>
			<path class="st5" d="M273.3,57.6c-0.6,0.1-1.1,0.4-1.5,0.7s-0.6,0.9-0.6,1.5c0,0.7,0.2,1.3,0.5,1.7c0.4,0.4,0.8,0.8,1.3,1
				c0.5,0.2,1.1,0.4,1.8,0.5c0.6,0.1,1.2,0.1,1.8,0.2c-0.2-0.2-0.5-0.3-0.7-0.5c-0.2-0.2-0.4-0.4-0.6-0.6s-0.3-0.5-0.4-0.8
				s-0.2-0.7-0.2-1.1c0-1.2,0.3-2.2,1-2.8s1.6-1,2.8-1c1.2,0,2.2,0.3,2.9,1s1,1.6,1,2.8c0,0.6-0.1,1.2-0.3,1.7c-0.2,0.5-0.5,1-1,1.3
				s-1,0.7-1.8,0.9s-1.6,0.3-2.7,0.3c-0.7,0-1.5-0.1-2.2-0.2c-0.8-0.1-1.5-0.3-2.1-0.7c-0.6-0.3-1.2-0.8-1.6-1.3s-0.6-1.3-0.6-2.2
				c0-1,0.2-1.7,0.7-2.4c0.5-0.6,1.2-1,2.2-1.1V57.6z M275.7,60.1c0,0.4,0.1,0.8,0.2,1.1c0.2,0.3,0.4,0.6,0.6,0.9
				c0.3,0.2,0.6,0.4,0.9,0.5s0.7,0.2,1.1,0.2c0.3,0,0.7,0,1-0.1s0.7-0.3,0.9-0.5c0.3-0.2,0.5-0.5,0.7-0.8c0.2-0.3,0.3-0.8,0.3-1.3
				c0-0.5-0.1-0.9-0.3-1.3s-0.4-0.6-0.7-0.8c-0.3-0.2-0.6-0.4-1-0.5c-0.4-0.1-0.7-0.1-1.1-0.1c-0.9,0-1.6,0.2-2.2,0.7
				C276,58.5,275.7,59.2,275.7,60.1z"/>
			<path class="st5" d="M279.7,52.6c0.6-0.1,1.1-0.4,1.5-0.8c0.3-0.4,0.5-0.9,0.5-1.6c0-0.7-0.2-1.3-0.5-1.7s-0.8-0.8-1.3-1
				c-0.5-0.2-1.1-0.4-1.7-0.5c-0.6-0.1-1.2-0.1-1.7-0.2l0,0c0.6,0.4,1.1,0.8,1.4,1.4c0.3,0.5,0.5,1.2,0.5,1.9c0,0.6-0.1,1.1-0.3,1.5
				c-0.2,0.5-0.4,0.8-0.8,1.2c-0.3,0.3-0.7,0.6-1.2,0.7c-0.5,0.2-1,0.3-1.6,0.3c-0.6,0-1.1-0.1-1.6-0.2c-0.5-0.2-0.9-0.4-1.3-0.7
				s-0.6-0.7-0.8-1.2c-0.2-0.5-0.3-1.1-0.3-1.7c0-0.8,0.2-1.5,0.5-2c0.3-0.5,0.7-1,1.3-1.3c0.5-0.3,1.2-0.6,1.9-0.7
				c0.7-0.1,1.5-0.2,2.4-0.2c1,0,1.9,0.1,2.7,0.3c0.8,0.2,1.4,0.5,1.9,0.9c0.5,0.4,0.9,0.9,1.2,1.4c0.3,0.5,0.4,1.1,0.4,1.8
				c0,0.5-0.1,0.9-0.2,1.3c-0.1,0.4-0.3,0.8-0.5,1.1c-0.2,0.3-0.5,0.6-0.9,0.7c-0.4,0.2-0.8,0.3-1.3,0.4V52.6z M271.3,50
				c0,0.9,0.3,1.6,0.9,2.1s1.3,0.7,2.2,0.7c0.9,0,1.6-0.2,2.1-0.7c0.5-0.5,0.8-1.2,0.8-2c0-0.4-0.1-0.8-0.2-1.1
				c-0.2-0.3-0.4-0.6-0.6-0.9c-0.3-0.2-0.6-0.4-0.9-0.5c-0.4-0.1-0.7-0.2-1.1-0.2c-0.9,0-1.6,0.2-2.2,0.7
				C271.6,48.5,271.3,49.2,271.3,50z"/>
		</g>
		<g class="st4">
			<path class="st5" d="M25.2,49.2v-3.1h0.7c0,0.5,0.1,0.9,0.1,1.2s0.2,0.7,0.3,1c0.2,0.3,0.4,0.5,0.7,0.7c0.3,0.2,0.7,0.3,1.2,0.4
				v0.9h-12v-1.1H25.2z"/>
			<path class="st5" d="M25.2,59.7v-3.1h0.7c0,0.5,0.1,0.9,0.1,1.2s0.2,0.7,0.3,1c0.2,0.3,0.4,0.5,0.7,0.7c0.3,0.2,0.7,0.3,1.2,0.4
				v0.9h-12v-1.1H25.2z"/>
			<path class="st5" d="M19.3,71.1v-5.5h0.9l8,5.6v1h-8v1.7h-0.9v-1.7h-3v-1.1H19.3z M20.2,66.7v4.4h6.4L20.2,66.7z"/>
			<path class="st5" d="M24.4,76.7c0.6,0,1.1,0.1,1.6,0.3c0.5,0.2,0.9,0.4,1.2,0.8s0.6,0.8,0.8,1.2c0.2,0.5,0.3,1,0.3,1.6
				c0,0.6-0.1,1.1-0.3,1.6s-0.4,0.8-0.7,1.2c-0.3,0.3-0.6,0.5-1.1,0.7c-0.4,0.2-0.8,0.2-1.3,0.2c-0.5,0-1-0.1-1.4-0.3
				s-0.8-0.4-1.1-0.7s-0.6-0.6-0.8-1c-0.2-0.4-0.5-0.7-0.7-1.1c-0.2-0.4-0.4-0.8-0.6-1.1c-0.2-0.4-0.4-0.7-0.6-1
				c-0.1-0.2-0.3-0.4-0.5-0.6c-0.2-0.2-0.3-0.3-0.5-0.5c-0.2-0.1-0.4-0.3-0.6-0.4s-0.5-0.1-0.8-0.2v6.7h-0.9v-7.8
				c0.6,0,1.1,0.1,1.6,0.2c0.5,0.1,0.9,0.4,1.4,0.7c0.5,0.4,0.9,0.9,1.2,1.3c0.3,0.4,0.6,0.9,0.9,1.3c0.3,0.4,0.5,0.8,0.7,1.2
				c0.2,0.4,0.5,0.7,0.7,1c0.3,0.3,0.6,0.5,0.9,0.7c0.3,0.2,0.7,0.3,1.2,0.3c0.4,0,0.7-0.1,1-0.2c0.3-0.1,0.6-0.3,0.8-0.6
				s0.4-0.5,0.5-0.8s0.2-0.7,0.2-1c0-0.4-0.1-0.8-0.2-1.1c-0.2-0.3-0.4-0.6-0.7-0.8c-0.3-0.2-0.6-0.4-1-0.5
				c-0.4-0.1-0.7-0.2-1.2-0.2V76.7z"/>
			<path class="st5" d="M25.3,93.4c0.6-0.1,1.1-0.4,1.5-0.7s0.6-0.9,0.6-1.5c0-0.7-0.2-1.3-0.5-1.7c-0.4-0.4-0.8-0.8-1.3-1
				c-0.5-0.2-1.1-0.4-1.8-0.5c-0.6-0.1-1.2-0.1-1.8-0.2c0.2,0.2,0.5,0.3,0.7,0.5c0.2,0.2,0.4,0.4,0.6,0.6c0.2,0.2,0.3,0.5,0.4,0.8
				s0.2,0.7,0.2,1.1c0,1.2-0.3,2.2-1,2.8s-1.6,1-2.8,1c-1.2,0-2.2-0.3-2.9-1s-1-1.6-1-2.8c0-0.6,0.1-1.2,0.3-1.7s0.5-1,1-1.3
				s1-0.7,1.8-0.9c0.7-0.2,1.6-0.3,2.7-0.3c0.7,0,1.5,0.1,2.2,0.2c0.8,0.1,1.5,0.3,2.1,0.7s1.2,0.8,1.6,1.3c0.4,0.6,0.6,1.3,0.6,2.2
				c0,1-0.2,1.7-0.7,2.4c-0.5,0.6-1.2,1-2.2,1.1V93.4z M22.9,90.9c0-0.4-0.1-0.8-0.2-1.1c-0.2-0.3-0.4-0.6-0.6-0.8
				c-0.3-0.2-0.6-0.4-0.9-0.5c-0.4-0.1-0.7-0.2-1.1-0.2c-0.3,0-0.7,0-1,0.1c-0.3,0.1-0.7,0.3-0.9,0.5c-0.3,0.2-0.5,0.5-0.7,0.8
				C17.1,90,17,90.4,17,90.9c0,0.5,0.1,0.9,0.3,1.3s0.4,0.6,0.7,0.8s0.6,0.4,1,0.5c0.4,0.1,0.7,0.1,1.1,0.1c0.9,0,1.6-0.2,2.2-0.7
				C22.6,92.5,22.9,91.8,22.9,90.9z"/>
			<path class="st5" d="M18.9,98.4c-0.6,0.1-1.1,0.4-1.5,0.8s-0.5,0.9-0.5,1.6c0,0.7,0.2,1.3,0.5,1.7s0.8,0.8,1.3,1
				c0.5,0.2,1.1,0.4,1.7,0.5c0.6,0.1,1.2,0.1,1.7,0.2l0,0c-0.6-0.4-1.1-0.8-1.4-1.4c-0.3-0.5-0.5-1.2-0.5-1.9c0-0.6,0.1-1.1,0.3-1.5
				c0.2-0.5,0.4-0.8,0.8-1.2s0.7-0.6,1.2-0.7c0.5-0.2,1-0.3,1.6-0.3c0.6,0,1.1,0.1,1.6,0.2c0.5,0.2,0.9,0.4,1.3,0.7s0.6,0.7,0.8,1.2
				s0.3,1.1,0.3,1.7c0,0.8-0.2,1.5-0.5,2c-0.3,0.5-0.7,1-1.3,1.3c-0.5,0.3-1.2,0.6-1.9,0.7c-0.7,0.1-1.5,0.2-2.4,0.2
				c-1,0-1.9-0.1-2.7-0.3c-0.8-0.2-1.4-0.5-1.9-0.9c-0.5-0.4-0.9-0.9-1.2-1.4c-0.3-0.5-0.4-1.1-0.4-1.8c0-0.5,0.1-0.9,0.2-1.3
				s0.3-0.8,0.5-1.1c0.2-0.3,0.5-0.6,0.9-0.7c0.4-0.2,0.8-0.3,1.3-0.4V98.4z M27.4,101c0-0.9-0.3-1.6-0.9-2.1s-1.3-0.7-2.2-0.7
				c-0.9,0-1.6,0.2-2.1,0.7c-0.5,0.5-0.8,1.2-0.8,2c0,0.4,0.1,0.8,0.2,1.1c0.2,0.3,0.4,0.6,0.6,0.9c0.3,0.2,0.6,0.4,0.9,0.5
				c0.4,0.1,0.7,0.2,1.1,0.2c0.9,0,1.6-0.2,2.2-0.7C27.1,102.5,27.3,101.8,27.4,101z"/>
		</g>
		<g class="st4">
			<path class="st5" d="M101.9,107.2L97,119.1h-1l-4.9-11.9h1l4.4,10.9l4.4-10.9H101.9z"/>
		</g>
		<g class="st4">
			<path class="st5" d="M104.5,119.1v-11.9h0.9v11.9H104.5z"/>
		</g>
		<g class="st4">
			<path class="st5" d="M113,108h-4.3v-0.8h9.5v0.8h-4.3v11.1H113V108z"/>
		</g>
		<g class="st4">
			<path class="st5" d="M136.5,117.4c-1.2,1.2-2.8,1.8-4.3,1.8c-4,0-6.1-2.8-6.1-6c0-3.2,2-6.2,6.1-6.2c1.6,0,3.1,0.6,4.3,1.8
				l-0.6,0.5c-1-1-2.4-1.5-3.7-1.5c-3.5,0-5.3,2.4-5.2,5.3c0,2.8,1.8,5.2,5.2,5.2c1.3,0,2.7-0.5,3.7-1.5L136.5,117.4z"/>
		</g>
		<g class="st4">
			<path class="st5" d="M148.2,119.1v-5.4h-7.6v5.4h-0.9v-11.9h0.9v5.7h7.6v-5.7h0.9v11.9H148.2z"/>
		</g>
		<g class="st4">
			<path class="st5" d="M153.6,112.7h7v0.8h-7v4.7h7.5v0.9h-8.4v-11.9h8.2v0.9h-7.3V112.7z"/>
		</g>
		<g class="st4">
			<path class="st5" d="M164.9,107.2l8,9.8v-9.8h0.9v11.9h-0.4l-8-9.8v9.8h-0.9v-11.9H164.9z"/>
			<path class="st5" d="M177.9,107.2l8,9.8v-9.8h0.9v11.9h-0.4l-8-9.8v9.8h-0.9v-11.9H177.9z"/>
			<path class="st5" d="M200,119.1l-1.3-2.9h-7.1l-1.3,2.9h-1l5.3-11.9h1l5.3,11.9H200z M198.3,115.3l-3.2-7.2l-3.2,7.2H198.3z"/>
			<path class="st5" d="M203.3,119.1v-11.9h0.9v11.9H203.3z"/>
		</g>
	</g>
</g>
</svg>
