<svg xmlns="http://www.w3.org/2000/svg" viewBox="0 0 1527.3 448.26"><defs><style>.cls-1{fill:#3f51b5;}.cls-2{fill:#9fa8da;}</style></defs><title>Asset 3</title><g id="Layer_2" data-name="Layer 2"><g id="Layer_1-2" data-name="Layer 1"><path class="cls-1" d="M60.15,103.65V230.85c0,37,20.21,65.08,58.67,65.08,37,0,62.12-31.06,62.12-68V103.65h59.65V347.19H186.85l-3.94-33c-25.14,24.65-48.31,36.48-82.33,36.48C42.4,350.64,0,306.77,0,231.34V103.65Z"/><path class="cls-1" d="M472.79,346.7V219.51c0-37-20.21-65.08-58.67-65.08-37,0-62.12,31.06-62.12,68V346.7H292.35V103.16h53.74l3.94,33c24.65-24.16,49.3-36.48,79.87-36.48,57.19,0,103,42.89,103,119.31V346.7Z"/><path class="cls-1" d="M650.26,35.13c0,46.83-71,46.83-71,0S650.26-11.71,650.26,35.13ZM584.7,102.67v244h60.15v-244Z"/><path class="cls-2" d="M918,448.26V290.5c-20.71,40.43-59.16,60.64-100.57,60.64-68.53,0-123.74-44.37-123.74-126.21,0-78.39,52.26-122.76,118.32-125.22,47.33,0,86.27,24.16,105.5,61.13V103.16h23.66v345.1Zm-2-222.83c0-59.65-41.9-102.54-98.6-102.54-55.22,0-99.58,33.52-99.58,102.05s44.37,103,99.58,103C873.1,328,916,285.08,916,225.42Z"/><path class="cls-2" d="M1033.32,103.16v43.38c18.73-33.52,52.75-47.33,86.77-47.82,65.08,0,109.94,39.93,109.94,107.47V346.7h-24.16v-140c0-55.22-34-84.8-86.77-84.3-50.29.49-85.29,38.45-85.29,88.74V346.7h-24.16V103.16Z"/><path class="cls-2" d="M1527.3,103.16V346.7h-24.16V294.93c-23.66,38-60.15,55.71-99.58,55.71-68,0-123.74-51.27-123.74-125.71s55.71-124.73,123.74-124.73c39.44,0,79.37,18.24,99.58,56.2V103.16ZM1304,224.93c0,61.13,44.37,102.05,99.58,102.05,135.57,0,135.57-203.61,0-203.61C1348.34,123.37,1304,163.8,1304,224.93Z"/></g></g></svg>